# xmcd
#
# Track frame offsets:
#	150
#	11552
#	25583
#	38411
#	51291
#	74333
#	87784
#	106934
#	121864
#	136449
#	146236
#	155944
#	169305
#	181180
#	200648
#	215029
#	242462
#	253639
#
# Disc length: 3557 seconds
#
# Revision: 0
# Processed by: cddbd v1.4PL0 Copyright (c) Steve Scherf et al.
# Submitted via: EasyCDDAExtractor 5.0.0.0
#
DISCID=fe0de312
DTITLE=Various Artist - Best of the blues cd 2
DYEAR=2000
DGENRE=blues
TTITLE0=John The Revelator
TTITLE1=Rollin' Stone
TTITLE2=Backdoor Man
TTITLE3=When The Lights Go Out
TTITLE4=Tantalizing With The Blues
TTITLE5=I Had A Dream
TTITLE6=Sweet Home Chicago
TTITLE7=Evil
TTITLE8=Pretty Woman
TTITLE9=I'm Your Wichdoctor
TTITLE10=Tribute To Elmore
TTITLE11=Future Blues
TTITLE12=Steelin'
TTITLE13=New York City Blues
TTITLE14=Wee Baby Blues
TTITLE15=One Bourbon, One Scotch, One Beer
TTITLE16=Snake Drive
TTITLE17=Bright Lights, Big City
EXTD=
EXTT0=
EXTT1=
EXTT2=
EXTT3=
EXTT4=
EXTT5=
EXTT6=
EXTT7=
EXTT8=
EXTT9=
EXTT10=
EXTT11=
EXTT12=
EXTT13=
EXTT14=
EXTT15=
EXTT16=
EXTT17=
PLAYORDER=
